<?xml version="1.0" standalone="no"?>
<!DOCTYPE svg PUBLIC "-//W3C//DTD SVG 20010904//EN"
 "http://www.w3.org/TR/2001/REC-SVG-20010904/DTD/svg10.dtd">
<svg version="1.0" xmlns="http://www.w3.org/2000/svg"
 width="294.000000pt" height="282.000000pt" viewBox="0 0 294.000000 282.000000"
 preserveAspectRatio="xMidYMid meet">

<g transform="translate(0.000000,282.000000) scale(0.100000,-0.100000)"
fill="#000000" stroke="none">
<path d="M1195 2796 c-294 -49 -542 -171 -751 -368 -368 -349 -519 -862 -399
-1356 211 -871 1184 -1321 1990 -920 262 131 499 367 631 631 43 85 97 243
121 357 28 133 26 421 -5 559 -123 549 -528 955 -1081 1082 -113 26 -390 34
-506 15z m376 -71 c207 -54 384 -219 454 -422 13 -37 26 -92 30 -120 l7 -53
-310 0 -310 0 -7 53 c-25 185 -135 376 -275 478 -37 27 -55 46 -48 50 10 7 48
13 203 33 56 8 192 -3 256 -19z m-493 -86 c87 -57 183 -165 225 -251 38 -77
67 -176 67 -226 l0 -30 -377 -5 c-411 -5 -439 -8 -567 -66 -88 -40 -149 -83
-223 -159 l-63 -64 16 46 c74 218 280 479 489 622 123 84 301 172 351 173 12
1 49 -17 82 -40z m853 0 c233 -99 483 -308 593 -496 6 -10 -37 -13 -198 -13
l-206 0 0 38 c0 121 -89 310 -200 424 -41 43 -72 78 -69 78 4 0 40 -14 80 -31z
m-564 -638 c-14 -127 -83 -264 -185 -367 -73 -74 -155 -124 -261 -162 l-76
-27 -387 -3 -388 -3 0 24 c0 48 40 180 77 250 51 98 172 220 270 270 137 71
171 76 587 76 l369 1 -6 -59z m689 12 c-21 -151 -80 -268 -191 -379 -63 -63
-99 -90 -165 -123 -124 -61 -186 -71 -450 -71 l-225 0 65 38 c177 102 306 295
341 511 l12 71 310 0 309 0 -6 -47z m557 -25 c94 -199 130 -358 130 -578 0
-219 -39 -397 -127 -572 l-41 -83 -225 0 -225 0 -6 55 c-27 248 -204 480 -438
575 l-55 23 38 16 c21 9 42 16 46 16 24 0 166 108 226 173 105 112 184 289
184 410 l0 37 230 0 229 0 34 -72z m-1729 -633 c185 -52 343 -183 424 -348 35
-73 62 -168 62 -222 l0 -37 -377 5 c-417 5 -433 7 -564 72 -178 90 -311 267
-349 462 -21 104 -53 96 373 90 309 -4 382 -8 431 -22z m681 0 c242 -65 427
-255 479 -492 28 -126 63 -113 -293 -113 l-309 0 -7 57 c-10 80 -41 176 -83
258 -43 83 -191 237 -264 275 -27 14 -48 29 -48 34 0 16 457 0 525 -19z
m-1205 -568 c36 -21 101 -50 145 -64 l80 -27 395 -6 395 -5 3 -308 2 -307 -42
0 c-65 0 -213 26 -313 55 -262 76 -519 256 -691 484 -57 76 -172 287 -189 347
-3 14 23 -6 72 -55 43 -42 108 -93 143 -114z m1698 -324 l-3 -228 -75 -37
c-136 -66 -303 -111 -459 -124 l-81 -7 0 312 0 311 310 0 310 0 -2 -227z m472
221 c0 -12 -65 -99 -125 -168 -57 -65 -135 -134 -237 -211 l-38 -27 0 206 0
206 200 0 c110 0 200 -3 200 -6z"/>
<path d="M2885 738 c6 -14 2 -18 -14 -18 -12 0 -21 -4 -21 -9 0 -11 38 -2 46
11 4 5 1 15 -5 21 -9 9 -11 8 -6 -5z"/>
</g>
</svg>
